<svg width="179" height="54" viewBox="0 0 179 54" fill="none" xmlns="http://www.w3.org/2000/svg">
<mask id="path-1-inside-1_22103_119810" fill="white">
<path d="M172.291 53.0985H6.6266C2.98201 53.0985 0 50.1117 0 46.4612V6.63734C0 2.98678 2.98195 0 6.6266 0H172.291C175.936 0 178.918 2.98678 178.918 6.63734V46.4611C178.918 50.1117 175.936 53.0985 172.291 53.0985"/>
</mask>
<path d="M172.291 53.0985H6.6266C2.98201 53.0985 0 50.1117 0 46.4612V6.63734C0 2.98678 2.98195 0 6.6266 0H172.291C175.936 0 178.918 2.98678 178.918 6.63734V46.4611C178.918 50.1117 175.936 53.0985 172.291 53.0985" fill="black"/>
<path d="M172.291 52.5985H6.6266V53.5985H172.291V52.5985ZM6.6266 52.5985C3.25891 52.5985 0.5 49.8363 0.5 46.4612H-0.5C-0.5 50.3871 2.70511 53.5985 6.6266 53.5985V52.5985ZM0.5 46.4612V6.63734H-0.5V46.4612H0.5ZM0.5 6.63734C0.5 3.26216 3.25886 0.5 6.6266 0.5V-0.5C2.70505 -0.5 -0.5 2.7114 -0.5 6.63734H0.5ZM6.6266 0.5H172.291V-0.5H6.6266V0.5ZM172.291 0.5C175.659 0.5 178.418 3.26217 178.418 6.63734H179.418C179.418 2.7114 176.213 -0.5 172.291 -0.5V0.5ZM178.418 6.63734V46.4611H179.418V6.63734H178.418ZM178.418 46.4611C178.418 49.8363 175.659 52.5985 172.291 52.5985V53.5985C176.213 53.5985 179.418 50.387 179.418 46.4611H178.418Z" fill="white" mask="url(#path-1-inside-1_22103_119810)"/>
<path d="M13.927 10.0327C13.4823 10.4347 13.2168 11.105 13.2168 11.9949V11.7937V41.1587V40.9652C13.2168 41.787 13.4445 42.4217 13.8302 42.8304L13.9286 42.9248V42.9252C14.2407 43.2074 14.641 43.3572 15.0997 43.3567C15.5479 43.3567 16.0522 43.2136 16.5844 42.9113L35.8217 31.9634L42.4296 28.2024C43.2688 27.7249 43.7399 27.1088 43.8187 26.4813V26.4788C43.7399 25.8498 43.2688 25.2343 42.4296 24.7567L35.8212 20.9962L16.5845 10.0482C16.0512 9.74547 15.5465 9.60181 15.0971 9.60181C14.6389 9.60181 14.2392 9.75113 13.9272 10.0327H13.927Z" fill="#00C1FF"/>
<path d="M62.8444 13.5276C62.8444 14.6398 62.5156 15.5254 61.8571 16.1861C61.109 16.9717 60.1341 17.3648 58.9356 17.3648C57.7879 17.3648 56.812 16.9666 56.0096 16.169C55.2057 15.372 54.8044 14.3837 54.8044 13.2045C54.8044 12.0248 55.2057 11.0371 56.0096 10.2395C56.812 9.44252 57.7879 9.0437 58.9356 9.0437C59.5051 9.0437 60.0503 9.15526 60.568 9.37773C61.0857 9.60074 61.5009 9.89677 61.8116 10.2675L61.1126 10.968C60.5861 10.338 59.8613 10.0232 58.9356 10.0232C58.0986 10.0232 57.3748 10.3178 56.764 10.9074C56.153 11.4975 55.8476 12.2629 55.8476 13.2045C55.8476 14.1462 56.153 14.9115 56.764 15.5017C57.3748 16.0913 58.0985 16.3858 58.9356 16.3858C59.8236 16.3858 60.5639 16.0896 61.1566 15.4965C61.5414 15.1101 61.7638 14.573 61.8234 13.8833H58.9356V12.9266H62.7889C62.8262 13.1346 62.8443 13.3342 62.8443 13.5276" fill="white"/>
<path d="M62.8443 13.5273H62.7117C62.7107 14.6141 62.3938 15.4583 61.7632 16.092L61.7618 16.093L61.7612 16.0941C61.0369 16.8526 60.1059 17.2301 58.9354 17.2317C57.8184 17.2301 56.8833 16.8485 56.1026 16.0748C55.3235 15.2996 54.9383 14.3532 54.9368 13.2042C54.9383 12.0546 55.3235 11.1088 56.1026 10.3341C56.8833 9.55992 57.8184 9.17774 58.9354 9.17613C59.4879 9.17613 60.0139 9.28411 60.5155 9.49925C61.0177 9.71605 61.4143 10.0001 61.7099 10.3529L61.8114 10.2672L61.7177 10.1733L61.0187 10.8743L61.1124 10.9677L61.2145 10.8827C60.6635 10.2215 59.8902 9.88822 58.9355 9.89019C58.0674 9.88912 57.3037 10.1998 56.6721 10.8117C56.0343 11.4256 55.7139 12.234 55.715 13.2042C55.7139 14.1744 56.0343 14.9828 56.6721 15.5967C57.3037 16.2087 58.0674 16.5193 58.9354 16.5182C59.8528 16.5198 60.6346 16.2081 61.2501 15.59C61.6612 15.1772 61.8942 14.6054 61.9553 13.8943L61.9677 13.7502H59.068V13.059H62.7888V12.9263L62.6583 12.9496C62.6946 13.1509 62.7117 13.3421 62.7117 13.5273H62.9768C62.9768 13.3256 62.9581 13.1182 62.9192 12.9025L62.8996 12.7935H58.803V14.0157H61.8232V13.883L61.6913 13.8716C61.6328 14.5395 61.4205 15.0425 61.0628 15.4024C60.4933 15.9707 59.7944 16.2511 58.9355 16.2527C58.1295 16.2517 57.4456 15.9737 56.8559 15.4059C56.272 14.8402 55.9815 14.1179 55.98 13.2042C55.9815 12.2905 56.272 11.5682 56.8559 11.0025C57.4456 10.4347 58.1294 10.1568 58.9355 10.1557C59.8317 10.1578 60.5084 10.4544 61.0111 11.0533L61.1043 11.1643L61.9051 10.3611L61.9911 10.2751L61.9128 10.1821C61.5872 9.79331 61.1534 9.48469 60.6201 9.2556C60.0859 9.02579 59.5221 8.91065 58.9355 8.91065C57.7573 8.90963 56.7405 9.32444 55.9158 10.1454C55.088 10.9647 54.6707 11.9945 54.6719 13.2042C54.6707 14.4134 55.088 15.4438 55.9163 16.2636C56.7405 17.084 57.7573 17.4983 58.9355 17.4972C60.1625 17.4983 61.1804 17.0901 61.9528 16.2776L61.8569 16.1858L61.9506 16.2797C62.6371 15.5926 62.9777 14.6644 62.9768 13.5273H62.8443H62.8443ZM68.9531 10.2003H65.3317V12.7257H68.5975V13.6827H65.3317V16.2081H68.9531V17.1866H64.3109V9.22183H68.9531V10.2003Z" fill="white"/>
<path d="M68.9531 10.2006V10.0678H65.1992V12.8587H68.4649V13.5499L65.1992 13.5503V16.3411H68.8205V17.0541H64.4434V9.35484H68.8205V10.2006H68.9531V10.0678V10.2006H69.0856V9.08936H64.1783V17.3196H69.0856V16.0756H65.4642V13.8157H68.73V12.5932H65.4642V10.3333H69.0856V10.2006H68.9531ZM73.2619 17.1869H72.2395V10.2005H70.0185V9.22204H75.4829V10.2005H73.2619V17.1868" fill="white"/>
<path d="M73.2619 17.1869V17.0541H72.372V10.0678H70.1511V9.3549H75.3504V10.0678H73.1294V17.1869H73.2619V17.0541V17.1869H73.3945V10.3333H75.6154V9.08936H69.886V10.3333H72.1069V17.3195H73.3945V17.1868H73.2619V17.1869ZM79.4366 17.1869V9.22204H80.458V17.1868H79.4366" fill="white"/>
<path d="M79.4367 17.1869H79.5693V9.35484H80.3256V17.0541H79.4367V17.1869H79.5693H79.4367V17.3196H80.5906V9.08936H79.3042V17.3196H79.4367V17.1869V17.1869ZM84.9906 17.1869H83.9681V10.2005H81.7472V9.22204H87.2116V10.2005H84.9906V17.1868" fill="white"/>
<path d="M84.9906 17.187V17.0542H84.1006V10.0679H81.8798V9.35494H87.079V10.0679H84.8581V17.1869H84.9906V17.0542V17.1869H85.1231V10.3334H87.3441V9.0894H81.6147V10.3333H83.8356V17.3196H85.1231V17.1868H84.9906V17.187ZM92.4797 15.4908C93.0683 16.0876 93.7885 16.3857 94.6401 16.3857C95.4917 16.3857 96.2123 16.0876 96.7999 15.4908C97.3891 14.894 97.6842 14.1311 97.6842 13.2045C97.6842 12.278 97.3891 11.5151 96.7999 10.9183C96.2123 10.3214 95.4917 10.0232 94.6401 10.0232C93.7885 10.0232 93.0683 10.3214 92.4797 10.9183C91.8921 11.5151 91.5971 12.278 91.5971 13.2045C91.5971 14.1311 91.8921 14.894 92.4797 15.4908ZM97.5558 16.1576C96.774 16.9628 95.8018 17.3648 94.6401 17.3648C93.4773 17.3648 92.5055 16.9628 91.7254 16.1576C90.9431 15.3533 90.5539 14.3687 90.5539 13.2045C90.5539 12.0403 90.9431 11.0556 91.7254 10.2514C92.5056 9.44604 93.4773 9.0437 94.6401 9.0437C95.7956 9.0437 96.7652 9.44819 97.5506 10.2566C98.3349 11.065 98.7274 12.0476 98.7274 13.2045C98.7274 14.3687 98.3359 15.3533 97.5558 16.1576Z" fill="white"/>
<path d="M92.4795 15.4905L92.3852 15.5838C92.9957 16.2045 93.7572 16.5198 94.6399 16.5182C95.522 16.5198 96.2846 16.2045 96.894 15.5838C97.5084 14.9625 97.8175 14.1588 97.8165 13.2042C97.8174 12.2497 97.5084 11.4459 96.894 10.8246C96.2846 10.2039 95.522 9.88864 94.6399 9.89019C93.7572 9.88864 92.9957 10.2039 92.3852 10.8246C91.7723 11.4459 91.4627 12.2497 91.4643 13.2042C91.4627 14.1588 91.7723 14.9625 92.3852 15.5838L92.4795 15.4905L92.5738 15.3972C92.0115 14.8241 91.7304 14.1033 91.7294 13.2042C91.7304 12.3051 92.0115 11.5843 92.5737 11.0113C93.1411 10.4383 93.8187 10.1573 94.6399 10.1557C95.4604 10.1573 96.1396 10.4383 96.7055 11.0113C97.2688 11.5843 97.5499 12.3051 97.5509 13.2042C97.5499 14.1033 97.2688 14.8241 96.7055 15.3972C96.1396 15.9701 95.4604 16.2511 94.6399 16.2527C93.8187 16.2511 93.1411 15.9701 92.5737 15.3972L92.4795 15.4905ZM97.5556 16.1573L97.4608 16.0651C96.7009 16.8449 95.7716 17.2302 94.6399 17.2317C93.5077 17.2301 92.5784 16.8449 91.8199 16.0651L91.8163 16.0609L91.8199 16.0651C91.0615 15.2825 90.6873 14.3388 90.6862 13.2042C90.6873 12.0696 91.0615 11.1259 91.8199 10.3434C92.5784 9.5635 93.5076 9.17774 94.6399 9.17619C95.7643 9.17774 96.6915 9.56511 97.4556 10.3491C98.2166 11.1352 98.593 12.0774 98.5947 13.2042C98.593 14.3388 98.2177 15.2825 97.4608 16.0651L97.5556 16.1573L97.6509 16.2495C98.4543 15.4231 98.8606 14.3979 98.8597 13.2042C98.8607 12.0173 98.4527 10.9942 97.6456 10.1641C96.838 9.33065 95.8265 8.90922 94.6399 8.91065C93.4471 8.90922 92.4324 9.32868 91.63 10.1589V10.1583C90.825 10.9854 90.4201 12.0105 90.4211 13.2042C90.4201 14.3979 90.825 15.4231 91.63 16.2501L91.6335 16.2538L91.63 16.2495C92.4324 17.0797 93.4471 17.4983 94.6399 17.4972C95.8321 17.4983 96.8468 17.0797 97.6509 16.2495L97.5556 16.1573ZM100.161 17.1866V9.22177H101.405L105.269 15.4178H105.313L105.269 13.8829V9.22177H106.292V17.1865H105.225L101.182 10.6902H101.138L101.182 12.2257V17.1865H100.161" fill="white"/>
<path d="M100.161 17.1869H100.294V9.35484H101.331L105.196 15.5509H105.45L105.402 13.8813V9.3549H106.16V17.0541H105.299L101.256 10.5578H101.002L101.05 12.2282V17.0541H100.161V17.1869H100.294H100.161V17.3196H101.315V12.2239L101.271 10.687L101.138 10.6906V10.8233H101.182V10.6906L101.07 10.7611L105.152 17.3196H106.425V9.08936H105.137V13.8848L105.181 15.4217L105.314 15.4181V15.2854H105.27V15.4181L105.382 15.3477L101.478 9.08936H100.029V17.3196H100.162V17.1869L100.161 17.1869ZM141.724 39.7537H144.197V23.1589H141.724L141.724 39.7537ZM163.999 29.1367L161.164 36.3314H161.079L158.137 29.1367H155.473L159.885 39.1926L157.37 44.7861H159.95L166.749 29.1367L163.999 29.1367ZM149.974 37.8689C149.163 37.8689 148.034 37.4633 148.034 36.4595C148.034 35.1786 149.442 34.6876 150.656 34.6876C151.744 34.6876 152.254 34.9224 152.915 35.243C152.723 36.7799 151.402 37.8689 149.974 37.8689ZM150.273 28.7736C148.482 28.7736 146.628 29.5638 145.861 31.3145L148.055 32.2323C148.524 31.3145 149.398 31.0153 150.315 31.0153C151.594 31.0153 152.894 31.7843 152.915 33.1507V33.3213C152.467 33.0651 151.509 32.6809 150.336 32.6809C147.97 32.6809 145.561 33.9829 145.561 36.4169C145.561 38.6374 147.501 40.0679 149.675 40.0679C151.338 40.0679 152.254 39.3207 152.83 38.4455H152.915V39.7263H155.302V33.3637C155.302 30.418 153.107 28.7736 150.273 28.7736ZM134.989 31.1568H131.472V25.4685H134.989C136.838 25.4685 137.887 27.0018 137.887 28.3126C137.887 29.5986 136.838 31.1568 134.989 31.1568ZM134.925 23.1589H129V39.7537H131.472V33.4664H134.925C137.666 33.4664 140.36 31.4788 140.36 28.3126C140.36 25.1465 137.666 23.1589 134.925 23.1589ZM102.613 37.8719C100.904 37.8719 99.4739 36.4392 99.4739 34.4714C99.4739 32.4828 100.904 31.0283 102.613 31.0283C104.3 31.0283 105.623 32.4828 105.623 34.4714C105.623 36.4392 104.3 37.8719 102.613 37.8719H102.613ZM105.452 30.0659H105.367C104.812 29.4031 103.744 28.8043 102.399 28.8043C99.5806 28.8043 96.9973 31.2849 96.9973 34.4714C96.9973 37.6366 99.5805 40.096 102.399 40.096C103.744 40.096 104.812 39.497 105.367 38.8131H105.452V39.6256C105.452 41.7859 104.3 42.9407 102.442 42.9407C100.926 42.9407 99.9865 41.8497 99.6018 40.9302L97.4457 41.8284C98.0648 43.3254 99.709 45.1647 102.442 45.1647C105.346 45.1647 107.801 43.4535 107.801 39.2834V29.1465H105.452V30.0659ZM109.509 39.7537H111.986V23.1583H109.509V39.7537ZM115.637 34.279C115.573 32.0974 117.324 30.9857 118.583 30.9857C119.566 30.9857 120.399 31.4773 120.676 32.1837L115.637 34.279ZM123.324 32.3972C122.854 31.135 121.423 28.8043 118.498 28.8043C115.594 28.8043 113.182 31.0925 113.182 34.4501C113.182 37.6153 115.573 40.096 118.775 40.096C121.359 40.096 122.854 38.5133 123.473 37.5939L121.552 36.3105C120.911 37.2517 120.035 37.8719 118.775 37.8719C117.516 37.8719 116.619 37.2943 116.042 36.1612L123.579 33.0386L123.324 32.3972ZM63.2758 30.5366V32.9318H68.9978C68.827 34.279 68.3786 35.2627 67.6953 35.9471C66.8628 36.7814 65.5603 37.7008 63.2757 37.7008C59.7526 37.7008 56.9985 34.8566 56.9985 31.3279C56.9985 27.7993 59.7526 24.9547 63.2758 24.9547C65.1761 24.9547 66.5636 25.7033 67.5886 26.6657L69.2753 24.9764C67.8449 23.6074 65.9444 22.5595 63.2758 22.5595C58.4501 22.5595 54.3934 26.4947 54.3934 31.3279C54.3934 36.1612 58.4501 40.096 63.2758 40.096C65.8808 40.096 67.8449 39.2409 69.382 37.6366C70.9621 36.0539 71.4534 33.83 71.4534 32.0337C71.4534 31.4773 71.4108 30.9645 71.3249 30.5366H63.2758ZM77.9588 37.8719C76.2503 37.8719 74.777 36.4604 74.777 34.4501C74.777 32.4184 76.2503 31.0283 77.9588 31.0283C79.6666 31.0283 81.14 32.4184 81.14 34.4501C81.14 36.4605 79.6666 37.8719 77.9588 37.8719ZM77.9588 28.8043C74.8411 28.8043 72.3002 31.178 72.3002 34.4501C72.3002 37.7008 74.8411 40.096 77.9588 40.096C81.0758 40.096 83.6167 37.7008 83.6167 34.4501C83.6167 31.178 81.0758 28.8043 77.9588 28.8043ZM90.3017 37.8719C88.594 37.8719 87.1204 36.4604 87.1204 34.4501C87.1204 32.4184 88.594 31.0283 90.3018 31.0283C92.0097 31.0283 93.4831 32.4184 93.4831 34.4501C93.4831 36.4605 92.0097 37.8719 90.3018 37.8719H90.3017ZM90.3017 28.8043C87.1842 28.8043 84.6439 31.178 84.6439 34.4501C84.6439 37.7008 87.1842 40.096 90.3018 40.096C93.4189 40.096 95.9599 37.7008 95.9599 34.4501C95.9599 31.178 93.4189 28.8043 90.3018 28.8043H90.3017Z" fill="white"/>
<path d="M13.9287 42.9255L13.8302 42.8312C13.4445 42.4225 13.2168 41.7878 13.2168 40.966V41.1594V11.8017V11.9956C13.2168 11.1058 13.4823 10.4354 13.927 10.0334L30.3475 26.48L13.9287 42.9255Z" fill="url(#paint0_linear_22103_119810)"/>
<path d="M35.8219 31.9639L30.3477 26.4799L35.8214 20.9968L42.4298 24.7572C43.269 25.2348 43.7401 25.8503 43.8188 26.4793V26.4818C43.7401 27.1093 43.269 27.7254 42.4298 28.2029L35.8219 31.9638" fill="url(#paint1_linear_22103_119810)"/>
<path d="M15.0998 43.3569C14.6412 43.3574 14.2409 43.2075 13.9288 42.9254V42.925L30.3477 26.4795L35.8219 31.9635L16.5846 42.9115C16.0523 43.2138 15.548 43.3569 15.0998 43.3569Z" fill="url(#paint2_linear_22103_119810)"/>
<path d="M30.3475 26.48L13.927 10.0334C14.2391 9.75181 14.6389 9.60248 15.097 9.60248C15.5464 9.60248 16.0511 9.74608 16.5844 10.0489L35.8212 20.9969L30.3475 26.48" fill="url(#paint3_linear_22103_119810)"/>
<path d="M15.1003 43.5522C14.6416 43.5522 14.2408 43.4024 13.9287 43.1203L13.9282 43.1208C13.9269 43.1195 13.9255 43.1183 13.924 43.1172L13.8387 43.0337C13.836 43.0311 13.8335 43.028 13.8303 43.025L13.9288 42.9264C14.2409 43.2084 14.6411 43.3583 15.0999 43.3578C15.548 43.3578 16.0523 43.2147 16.5846 42.9124L35.8218 31.9644L35.9451 32.0879L35.8203 32.1589L16.5845 43.1063C16.0995 43.3817 15.6381 43.5253 15.2214 43.5492C15.1811 43.5512 15.1407 43.5522 15.1003 43.5522" fill="url(#paint4_linear_22103_119810)"/>
<path d="M35.9448 32.0869L35.8215 31.9634L42.4294 28.2024C43.2686 27.725 43.7398 27.1089 43.8185 26.4814C43.8185 26.7117 43.7672 26.9419 43.6653 27.166C43.4597 27.6176 43.0477 28.0443 42.4295 28.3964L35.9448 32.0869" fill="url(#paint5_linear_22103_119810)"/>
<path d="M43.8188 26.4788C43.74 25.8498 43.2689 25.2343 42.4298 24.7566L35.8213 20.9962L35.9445 20.8727H35.9451L42.4298 24.5632C43.3549 25.0901 43.8183 25.7843 43.8188 26.4788Z" fill="url(#paint6_linear_22103_119810)"/>
<path d="M35.8213 20.9971L16.5846 10.049C16.0513 9.74622 15.5466 9.60262 15.0972 9.60262C14.639 9.60262 14.2393 9.75195 13.9272 10.0335L13.8303 9.93605C13.8606 9.90397 13.892 9.87303 13.9246 9.84328C13.9256 9.84221 13.9272 9.84114 13.9282 9.84012C14.2379 9.56068 14.6333 9.41135 15.0874 9.40867H15.0972C15.5466 9.40867 16.0513 9.55233 16.5846 9.85522L35.9451 20.8732L35.9445 20.8736L35.8213 20.9971Z" fill="url(#paint7_linear_22103_119810)"/>
<defs>
<linearGradient id="paint0_linear_22103_119810" x1="23.7105" y1="11.4915" x2="9.55971" y2="25.665" gradientUnits="userSpaceOnUse">
<stop stop-color="#00A0FF"/>
<stop offset="0.00657" stop-color="#00A1FF"/>
<stop offset="0.2601" stop-color="#00BEFF"/>
<stop offset="0.5122" stop-color="#00D2FF"/>
<stop offset="0.7604" stop-color="#00DFFF"/>
<stop offset="1" stop-color="#00E3FF"/>
</linearGradient>
<linearGradient id="paint1_linear_22103_119810" x1="44.8413" y1="26.3851" x2="12.7726" y2="26.3851" gradientUnits="userSpaceOnUse">
<stop stop-color="#FFE000"/>
<stop offset="0.4087" stop-color="#FFBD00"/>
<stop offset="0.7754" stop-color="#FFA500"/>
<stop offset="1" stop-color="#FF9C00"/>
</linearGradient>
<linearGradient id="paint2_linear_22103_119810" x1="32.9156" y1="31.6935" x2="8.93606" y2="55.5362" gradientUnits="userSpaceOnUse">
<stop stop-color="#FF3A44"/>
<stop offset="1" stop-color="#C31162"/>
</linearGradient>
<linearGradient id="paint3_linear_22103_119810" x1="9.69498" y1="7.59512" x2="20.3821" y2="18.2376" gradientUnits="userSpaceOnUse">
<stop stop-color="#32A071"/>
<stop offset="0.0685" stop-color="#2DA771"/>
<stop offset="0.4762" stop-color="#15CF74"/>
<stop offset="0.8009" stop-color="#06E775"/>
<stop offset="1" stop-color="#00F076"/>
</linearGradient>
<linearGradient id="paint4_linear_22103_119810" x1="32.9036" y1="35.4984" x2="13.6996" y2="54.7335" gradientUnits="userSpaceOnUse">
<stop stop-color="#CC2E36"/>
<stop offset="1" stop-color="#9C0E4E"/>
</linearGradient>
<linearGradient id="paint5_linear_22103_119810" x1="44.841" y1="26.4802" x2="12.7722" y2="26.4802" gradientUnits="userSpaceOnUse">
<stop stop-color="#E0C500"/>
<stop offset="0.4087" stop-color="#E0A600"/>
<stop offset="0.7754" stop-color="#E09100"/>
<stop offset="1" stop-color="#E08900"/>
</linearGradient>
<linearGradient id="paint6_linear_22103_119810" x1="44.8413" y1="26.4801" x2="12.7726" y2="26.4801" gradientUnits="userSpaceOnUse">
<stop stop-color="#FFE840"/>
<stop offset="0.4087" stop-color="#FFCE40"/>
<stop offset="0.7754" stop-color="#FFBC40"/>
<stop offset="1" stop-color="#FFB540"/>
</linearGradient>
<linearGradient id="paint7_linear_22103_119810" x1="9.6712" y1="11.0734" x2="18.2466" y2="19.6628" gradientUnits="userSpaceOnUse">
<stop stop-color="#65B895"/>
<stop offset="0.0685" stop-color="#62BD95"/>
<stop offset="0.4762" stop-color="#50DB97"/>
<stop offset="0.8009" stop-color="#44ED98"/>
<stop offset="1" stop-color="#40F498"/>
</linearGradient>
</defs>
</svg>
