<svg width="180" height="55" viewBox="0 0 180 55" fill="none" xmlns="http://www.w3.org/2000/svg">
<path d="M178.835 48.7146C178.835 51.5804 176.63 53.8802 173.928 53.8802H5.16361C2.46249 53.8802 0.25 51.5799 0.25 48.7146V5.52714C0.25 2.66288 2.46305 0.354492 5.16361 0.354492H173.927C176.63 0.354492 178.834 2.66237 178.834 5.52714L178.835 48.7146Z" fill="black" stroke="white" stroke-width="0.5"/>
<path d="M39.4519 25.313C39.413 20.9879 42.9933 18.8838 43.157 18.7858C41.1293 15.8295 37.9866 15.4256 36.8822 15.3934C34.2426 15.1156 31.6822 16.9729 30.3376 16.9729C28.9661 16.9729 26.8955 15.4202 24.6639 15.4659C21.7921 15.5101 19.1057 17.1728 17.6321 19.7547C14.5914 25.0191 16.8592 32.7554 19.7726 37.0107C21.2298 39.096 22.9329 41.4216 25.1617 41.3398C27.3424 41.2512 28.1569 39.9509 30.7885 39.9509C33.3957 39.9509 34.1608 41.3398 36.4339 41.2874C38.7743 41.2512 40.2477 39.194 41.6541 37.0912C43.3383 34.7039 44.0145 32.3501 44.0414 32.2293C43.9876 32.2106 39.4975 30.4956 39.4519 25.313ZM35.1577 12.5941C36.3304 11.1274 37.133 9.13192 36.9103 7.10693C35.2126 7.18208 33.0898 8.28113 31.8672 9.71566C30.7856 10.9798 29.8194 13.0517 30.069 15.0002C31.976 15.1425 33.9339 14.038 35.1577 12.5941Z" fill="white"/>
<path d="M71.037 41.0406H67.9895L66.3201 35.795H60.5174L58.9272 41.0406H55.9603L61.7105 23.1821H65.2613L71.037 41.0406ZM65.817 33.5942L64.3073 28.931C64.1476 28.4546 63.847 27.3327 63.4067 25.5667H63.3532C63.176 26.3263 62.8929 27.4481 62.5051 28.931L61.0209 33.5942H65.817ZM85.7957 34.4436C85.7957 36.6337 85.2012 38.3648 84.0108 39.6357C82.9455 40.7669 81.621 41.3319 80.0414 41.3319C78.3358 41.3319 77.1093 40.7239 76.3645 39.5055V46.2622H73.5035V32.3958C73.5035 31.0202 73.4674 29.61 73.3976 28.1634H75.9137L76.0734 30.2045H76.127C77.0811 28.6666 78.529 27.8976 80.4722 27.8976C81.9912 27.8976 83.2594 28.4974 84.2739 29.6984C85.287 30.9023 85.7957 32.4831 85.7957 34.4436ZM82.8809 34.5483C82.8809 33.2949 82.5991 32.2617 82.0328 31.4471C81.4142 30.6003 80.5835 30.1764 79.5422 30.1764C78.8363 30.1764 78.1949 30.4125 77.6219 30.8781C77.0475 31.3478 76.6718 31.9611 76.4961 32.7206C76.4075 33.0749 76.3633 33.3634 76.3633 33.5916V35.74C76.3633 36.6753 76.6504 37.4658 77.2248 38.1126C77.7991 38.7567 78.5452 39.08 79.4631 39.08C80.5408 39.08 81.3795 38.6628 81.9793 37.8347C82.5803 37.0041 82.8809 35.909 82.8809 34.5483ZM100.607 34.4436C100.607 36.6337 100.012 38.3648 98.8218 39.6357C97.755 40.7669 96.4318 41.3319 94.851 41.3319C93.1454 41.3319 91.9189 40.7239 91.1741 39.5055V46.2622H88.3131V32.3958C88.3131 31.0202 88.2769 29.61 88.2071 28.1634H90.7232L90.8829 30.2045H90.9366C91.8894 28.6666 93.3373 27.8976 95.2817 27.8976C96.7994 27.8976 98.0675 28.4974 99.0848 29.6984C100.097 30.9023 100.607 32.4831 100.607 34.4436ZM97.6905 34.5483C97.6905 33.2949 97.4075 32.2617 96.8411 31.4471C96.2225 30.6003 95.3945 30.1764 94.3531 30.1764C93.6473 30.1764 93.0058 30.4125 92.4302 30.8781C91.8558 31.3478 91.4815 31.9611 91.3056 32.7206C91.2184 33.0749 91.1714 33.3634 91.1714 33.5916V35.74C91.1714 36.6753 91.4599 37.4658 92.0316 38.1126C92.6059 38.7554 93.3521 39.08 94.2726 39.08C95.3514 39.08 96.1902 38.6628 96.7888 37.8347C97.39 37.0041 97.6905 35.909 97.6905 34.5483ZM117.166 36.0312C117.166 37.5516 116.635 38.7875 115.579 39.7416C114.416 40.783 112.794 41.305 110.714 41.305C108.792 41.305 107.252 40.9346 106.09 40.1925L106.751 37.8079C108.006 38.5513 109.384 38.9217 110.884 38.9217C111.963 38.9217 112.802 38.6775 113.401 38.193C114 37.7072 114.304 37.0577 114.304 36.2472C114.304 35.5213 114.053 34.9133 113.56 34.4183C113.065 33.9244 112.247 33.4641 111.097 33.0414C107.97 31.8753 106.405 30.1697 106.405 27.926C106.405 26.4606 106.958 25.2609 108.061 24.3229C109.164 23.3862 110.627 22.918 112.447 22.918C114.072 22.918 115.426 23.2011 116.501 23.7661L115.783 26.0982C114.771 25.5507 113.629 25.277 112.351 25.277C111.342 25.277 110.55 25.5252 109.984 26.0191C109.508 26.4606 109.266 26.9988 109.266 27.6374C109.266 28.3421 109.541 28.9272 110.089 29.3861C110.564 29.8087 111.431 30.2691 112.684 30.7629C114.222 31.3829 115.352 32.1049 116.075 32.9342C116.804 33.7633 117.166 34.7979 117.166 36.0312ZM126.65 30.3105H123.496V36.5626C123.496 38.1528 124.052 38.9458 125.165 38.9458C125.677 38.9458 126.101 38.9028 126.436 38.813L126.515 40.9856C125.952 41.1964 125.21 41.3023 124.29 41.3023C123.161 41.3023 122.278 40.9574 121.64 40.2677C121.005 39.5779 120.686 38.4225 120.686 36.7961V30.3051H118.807V28.158H120.686V25.8002L123.496 24.9521V28.158H126.65V30.3105ZM140.85 34.496C140.85 36.4752 140.284 38.1003 139.154 39.3712C137.971 40.6796 136.399 41.3318 134.438 41.3318C132.546 41.3318 131.042 40.7051 129.92 39.4531C128.798 38.1983 128.237 36.6176 128.237 34.7107C128.237 32.7151 128.817 31.0807 129.972 29.8099C131.13 28.5378 132.69 27.9018 134.65 27.9018C136.54 27.9018 138.057 28.5297 139.206 29.7831C140.304 30.9989 140.85 32.569 140.85 34.496ZM137.884 34.5617C137.884 33.3821 137.629 32.3702 137.118 31.5235C136.518 30.5009 135.659 29.9898 134.547 29.9898C133.401 29.9898 132.522 30.5009 131.923 31.5235C131.411 32.3702 131.156 33.3995 131.156 34.6153C131.156 35.7963 131.411 36.8107 131.923 37.6549C132.542 38.6775 133.405 39.1887 134.523 39.1887C135.616 39.1887 136.474 38.6667 137.094 37.6294C137.62 36.7625 137.884 35.744 137.884 34.5617ZM150.154 30.6795C149.871 30.6271 149.567 30.6002 149.252 30.6002C148.245 30.6002 147.467 30.9788 146.92 31.7409C146.445 32.4118 146.206 33.2599 146.206 34.2838V41.0405H143.345V32.2187C143.345 30.7359 143.317 29.3832 143.262 28.1647H145.754L145.858 30.6284H145.937C146.241 29.7818 146.716 29.0986 147.368 28.5873C148.005 28.1271 148.694 27.8976 149.436 27.8976C149.7 27.8976 149.939 27.9163 150.151 27.95L150.154 30.6795ZM162.949 33.9928C162.949 34.5054 162.915 34.9374 162.844 35.2904H154.261C154.293 36.5626 154.71 37.5368 155.507 38.2078C156.23 38.8064 157.165 39.1069 158.314 39.1069C159.585 39.1069 160.744 38.9056 161.787 38.499L162.235 40.4837C161.017 41.0151 159.578 41.2795 157.918 41.2795C155.921 41.2795 154.354 40.6916 153.213 39.5189C152.075 38.3447 151.505 36.7665 151.505 34.7899C151.505 32.8493 152.035 31.2324 153.096 29.9428C154.208 28.566 155.709 27.8774 157.599 27.8774C159.455 27.8774 160.86 28.5658 161.814 29.9428C162.569 31.0338 162.949 32.3865 162.949 33.9928ZM160.221 33.2507C160.241 32.4012 160.053 31.6699 159.665 31.0512C159.17 30.2541 158.408 29.8569 157.387 29.8569C156.451 29.8569 155.689 30.2447 155.109 31.023C154.633 31.6417 154.35 32.3851 154.263 33.248L160.221 33.2507Z" fill="white"/>
<path d="M64.4376 16.7879H62.9386L62.1187 14.2101H59.267L58.4847 16.7879H57.026L59.8521 8.01034H61.5966L64.4376 16.7879ZM61.8717 13.1285L61.1296 10.8365C61.0518 10.6016 60.9082 10.0554 60.6868 9.18319H60.66C60.5687 9.56027 60.4386 10.1078 60.2426 10.8365L59.514 13.1285H61.8717ZM71.5042 10.4594L69.1075 16.7879H67.7399L65.4212 10.4594H66.9322L68.0138 13.8062C68.1963 14.3658 68.352 14.8998 68.4687 15.4071H68.5076C68.6124 14.9522 68.768 14.4181 68.9625 13.8062L70.0307 10.4594H71.5042ZM76.6062 16.7879L76.5015 16.0592H76.4625C76.0331 16.6456 75.4077 16.9314 74.6134 16.9314C73.4807 16.9314 72.6729 16.137 72.6729 15.0688C72.6729 13.5068 74.0269 12.699 76.3713 12.699V12.5822C76.3713 11.7489 75.9284 11.3315 75.0562 11.3315C74.4307 11.3315 73.8833 11.4885 73.4029 11.8012L73.1169 10.8766C73.7034 10.5116 74.4322 10.3291 75.2922 10.3291C76.9455 10.3291 77.7802 11.2014 77.7802 12.9472V15.2782C77.7802 15.9169 77.807 16.4121 77.8714 16.7892L76.6062 16.7879ZM76.4103 13.6357C74.847 13.6357 74.0659 14.0142 74.0659 14.9119C74.0659 15.5762 74.4698 15.9009 75.0294 15.9009C75.7459 15.9009 76.4103 15.3548 76.4103 14.6127V13.6357ZM80.9125 9.41669C80.4442 9.41669 80.0791 9.05168 80.0791 8.56992C80.0791 8.08817 80.4563 7.73658 80.9393 7.73658C81.4211 7.73658 81.8116 8.08817 81.7983 8.56992C81.7983 9.07852 81.4346 9.41669 80.9125 9.41669ZM81.6425 16.7879H80.2361V10.4594H81.6425V16.7879ZM85.5475 16.7879H84.1412V7.55542H85.5475V16.7879ZM91.5245 16.7879L91.4197 16.0592H91.3809C90.9515 16.6456 90.3262 16.9314 89.5317 16.9314C88.3992 16.9314 87.5913 16.137 87.5913 15.0688C87.5913 13.5068 88.9452 12.699 91.2896 12.699V12.5822C91.2896 11.7489 90.8467 11.3315 89.9745 11.3315C89.3491 11.3315 88.8016 11.4885 88.3212 11.8012L88.0341 10.8753C88.6206 10.5103 89.3492 10.3278 90.2094 10.3278C91.8627 10.3278 92.6973 11.2 92.6973 12.9459V15.2768C92.6973 15.9156 92.7256 16.4108 92.7873 16.7878H91.5245V16.7879ZM91.3286 13.6357C89.7652 13.6357 88.9842 14.0142 88.9842 14.9119C88.9842 15.5762 89.388 15.9009 89.9476 15.9009C90.6642 15.9009 91.3286 15.3548 91.3286 14.6127V13.6357ZM98.3954 16.9315C97.4976 16.9315 96.8346 16.5531 96.4051 15.811H96.377L96.2965 16.7879H95.0981C95.137 16.2807 95.1504 15.7063 95.1504 15.0823V7.55542H96.5581V11.3853H96.585C97.0022 10.6821 97.6774 10.3305 98.6032 10.3305C100.128 10.3305 101.196 11.6336 101.196 13.5337C101.196 15.4983 100.01 16.9315 98.3954 16.9315ZM98.1094 11.435C97.3002 11.435 96.5596 12.1381 96.5596 13.1151V14.2222C96.5596 15.0944 97.2251 15.811 98.0854 15.811C99.1388 15.811 99.7655 14.9522 99.7655 13.5847C99.764 12.3086 99.1118 11.435 98.1094 11.435ZM104.681 16.7879H103.276V7.55542H104.681V16.7879ZM112.337 13.9618H108.115C108.143 15.1602 108.935 15.8365 110.108 15.8365C110.733 15.8365 111.306 15.7318 111.813 15.5373L112.032 16.5142C111.434 16.7745 110.73 16.9047 109.91 16.9047C107.93 16.9047 106.758 15.654 106.758 13.7149C106.758 11.7745 107.958 10.3158 109.752 10.3158C111.367 10.3158 112.384 11.5141 112.384 13.3244C112.389 13.5713 112.377 13.7927 112.337 13.9618ZM111.047 12.9594C111.047 11.9825 110.552 11.2927 109.653 11.2927C108.845 11.2927 108.209 11.9959 108.115 12.9594H111.047ZM120.861 16.9315C119.011 16.9315 117.813 15.5507 117.813 13.676C117.813 11.7221 119.037 10.3292 120.967 10.3292C122.788 10.3292 124.014 11.6443 124.014 13.5727C124.014 15.5507 122.75 16.9315 120.861 16.9315ZM120.914 11.3571C119.898 11.3571 119.248 12.3072 119.248 13.6357C119.248 14.9388 119.912 15.8889 120.901 15.8889C121.89 15.8889 122.553 14.873 122.553 13.6089C122.554 12.3206 121.903 11.3571 120.914 11.3571ZM131.575 16.7879H130.17V13.154C130.17 12.0348 129.74 11.4739 128.894 11.4739C128.06 11.4739 127.486 12.1905 127.486 13.0238V16.7879H126.081V12.2683C126.081 11.7087 126.066 11.1089 126.029 10.458H127.266L127.332 11.435H127.37C127.746 10.7586 128.516 10.3279 129.375 10.3279C130.702 10.3279 131.575 11.3437 131.575 12.997V16.7879H131.575ZM140.776 11.5141H139.229V14.5872C139.229 15.3695 139.502 15.76 140.048 15.76C140.296 15.76 140.505 15.7332 140.673 15.6943L140.712 16.7625C140.438 16.8672 140.072 16.9195 139.62 16.9195C138.511 16.9195 137.85 16.3075 137.85 14.7053V11.5141H136.926V10.4594H137.85V9.29994L139.229 8.8826V10.458H140.776V11.5141ZM148.224 16.7879H146.816V13.1808C146.816 12.0482 146.387 11.4752 145.54 11.4752C144.812 11.4752 144.135 11.9704 144.135 12.9728V16.7879H142.728V7.55542H144.135V11.3571H144.162C144.605 10.6674 145.244 10.3279 146.064 10.3279C147.404 10.3279 148.224 11.3692 148.224 13.0238V16.7879ZM155.41 13.9618H151.19C151.217 15.1602 152.008 15.8365 153.181 15.8365C153.808 15.8365 154.38 15.7318 154.887 15.5373L155.107 16.5142C154.508 16.7745 153.804 16.9047 152.984 16.9047C151.003 16.9047 149.832 15.654 149.832 13.7149C149.832 11.7745 151.032 10.3158 152.826 10.3158C154.44 10.3158 155.457 11.5141 155.457 13.3244C155.462 13.5713 155.449 13.7927 155.41 13.9618ZM154.121 12.9594C154.121 11.9825 153.627 11.2927 152.728 11.2927C151.918 11.2927 151.282 11.9959 151.19 12.9594H154.121Z" fill="white"/>
</svg>
