<svg width="52" height="46" viewBox="0 0 52 46" fill="none" xmlns="http://www.w3.org/2000/svg">
<path d="M22.2429 33.2743L8.28035 36.2236C7.95531 36.2921 7.74776 36.6113 7.81668 36.9363C7.8834 37.2537 8.19361 37.4692 8.52941 37.4008L22.492 34.4515C22.817 34.383 23.0246 34.0638 22.9556 33.7388C22.8875 33.4134 22.5664 33.2074 22.2429 33.2743Z" fill="black"/>
<path d="M19.3106 37.5544C15.815 38.0917 12.2921 38.7543 8.84119 39.5238C8.51693 39.5959 8.31251 39.9174 8.38457 40.2416C8.45776 40.5691 8.78162 40.7695 9.10279 40.6978C12.5278 39.9346 16.0242 39.2767 19.4938 38.7433C19.822 38.6928 20.0476 38.3858 19.9967 38.0576C19.9465 37.729 19.6442 37.5074 19.3106 37.5544Z" fill="black"/>
<path d="M47.5076 13.4569L2.83118 23.684L1.75464 18.3013L2.29291 16.1482L8.21387 15.0717L20.5941 12.3803L35.1274 9.68897L45.8927 7.53589L46.431 8.07416L46.9693 10.7655L47.5076 13.4569Z" fill="#08A5E3"/>
<path d="M7.13733 31.2198V29.0667V27.4519L9.29041 26.9136L11.9818 26.3753L13.0583 26.9136L13.5966 29.6049V31.2198L12.52 32.2963L9.29041 32.8346L7.6756 32.2963L7.13733 31.2198Z" fill="#08A5E3"/>
<path d="M12.6383 32.63C13.5821 32.4366 14.2126 31.5405 14.0747 30.5901C13.9298 29.5931 13.7512 28.5839 13.5437 27.5911C13.3518 26.6708 12.4636 26.0427 11.5104 26.1613C10.3661 26.3047 9.14273 26.5416 7.87391 26.8655C6.9309 27.1063 6.3333 28.036 6.51345 28.9817C6.69829 29.949 6.90349 30.9132 7.12201 31.8464C7.31625 32.6758 8.0705 33.2558 8.90307 33.2558C9.41488 33.2558 12.0838 32.7438 12.6383 32.63ZM7.90289 31.6635C7.68672 30.7409 7.48464 29.7877 7.30137 28.8314C7.20033 28.3011 7.53869 27.7787 8.07285 27.6424C9.30878 27.3272 10.4993 27.0965 11.6107 26.9571C12.1425 26.8937 12.6516 27.2406 12.7589 27.7548C12.9625 28.7319 13.138 29.7246 13.2805 30.7052C13.3581 31.2359 13.0048 31.7363 12.4769 31.8444C11.3209 32.0818 10.1977 32.2776 9.04405 32.4436C8.5326 32.5227 8.0235 32.1765 7.90289 31.6635Z" fill="black"/>
<path d="M1.45744 16.0056C1.45481 16.0094 1.45306 16.0138 1.45044 16.0176C1.45591 16.0167 1.4594 16.0137 1.45744 16.0056Z" fill="black"/>
<path d="M1.45664 16.006C1.4634 15.9964 1.46781 15.9853 1.47457 15.9758C1.43548 15.9541 1.45204 15.9857 1.45664 16.006Z" fill="black"/>
<path d="M1.43457 16.0139C1.43777 16.0182 1.44161 16.0233 1.44492 16.0276C1.44738 16.0241 1.44898 16.0201 1.45143 16.0166C1.44738 16.0173 1.44567 16.0201 1.43457 16.0139Z" fill="black"/>
<path d="M6.15893 44.3196C6.22404 44.4227 6.29277 44.5238 6.37637 44.6125C6.80313 45.0657 7.52106 45.2108 8.12081 45.2144C9.58299 45.2232 35.9845 39.9271 40.1313 38.6222L40.0562 38.6758C42.8557 37.9701 37.0835 39.35 51.7116 35.8479C51.8315 35.6724 51.8922 35.4767 51.9149 35.2786C52.1452 34.7623 47.1008 8.51472 46.7885 7.57776C46.6788 7.23628 46.4705 7.07297 46.0765 7.0812C45.7393 7.08781 45.6758 7.00103 44.8468 7.22531C44.4586 7.32858 2.22767 15.4642 2.04122 15.5725C1.74477 15.7448 1.57745 15.9073 1.49101 16.0881C1.47554 16.068 1.45909 16.046 1.44431 16.0266C1.07423 16.5606 0.78111 17.1513 0.604492 17.7764C6.38459 45.8767 5.91478 44.1184 6.15893 44.3196ZM50.7766 34.6613C50.7372 34.6704 23.4053 40.1354 17.8686 41.3223C17.3662 41.4299 8.38464 43.3324 7.88565 43.2192C7.81401 43.1082 5.57972 31.3275 4.29446 24.8112C18.5921 21.8086 32.9612 19.1458 47.3857 16.827C47.4009 16.9073 50.7063 34.2979 50.7766 34.6613ZM45.7742 8.27523C45.8935 8.50541 46.4091 11.6621 46.4195 11.7443C31.98 14.0655 17.5961 16.7311 3.28381 19.7376C3.08839 18.7662 2.80883 17.392 2.64979 16.6103C2.74425 16.558 45.7521 8.27277 45.7742 8.27523Z" fill="black"/>
<path d="M41.4743 32.6955C41.0805 32.7715 40.7317 32.7404 40.4278 32.6021C40.1562 32.4795 39.8655 32.2584 39.5559 31.9389C39.1025 31.4794 38.6897 30.8334 38.3174 30.0008L38.0082 29.3056C37.931 29.0944 37.8467 28.8846 37.7554 28.6761C37.6847 28.5366 37.5963 28.3239 37.49 28.0381C37.3546 27.7141 37.2668 27.505 37.2267 27.4106L37.1832 27.2987C37.0103 26.8944 36.9033 26.6233 36.8621 26.4854C36.7434 26.1728 36.6398 25.9193 36.5512 25.7249C36.507 25.6094 36.4511 25.4707 36.3833 25.3087L36.2545 25.0382L36.0077 25.4031C35.8007 25.691 35.5196 25.9349 35.1643 26.1348C35.1107 26.1597 35.053 26.1818 34.9911 26.2011L34.8897 26.2425L34.9175 26.4997C34.9229 26.5279 34.9297 26.563 34.9378 26.6052C35.028 27.1859 35.0758 27.4903 35.0813 27.5184C35.179 28.0247 35.2338 28.3277 35.2458 28.4275L35.5044 29.767C35.617 30.3507 35.69 30.7852 35.7232 31.0705C35.7137 31.8527 35.4734 32.2893 35.0023 32.3803C34.6155 32.4549 34.2699 32.157 33.9654 31.4864C33.76 30.9134 33.5173 30.0339 33.2373 28.848L33.018 27.9385C32.8705 27.3252 32.775 26.906 32.7315 26.681C32.6046 26.1366 32.4982 25.6612 32.4124 25.2547C32.3267 24.8482 32.2444 24.441 32.1657 24.0332L32.1213 23.7464L32.0206 23.0547C31.9706 22.758 31.9395 22.3702 31.9273 21.8911C31.9449 21.1511 32.2174 20.7301 32.7448 20.6283C32.9065 20.5971 33.1191 20.6217 33.3826 20.7022C33.6461 20.7826 33.8744 20.9828 34.0675 21.303C34.0996 21.5448 34.1726 21.961 34.2866 22.5516C34.2848 22.6176 34.3029 22.7491 34.3409 22.946L34.4003 23.1971C34.4532 23.4713 34.4938 23.7005 34.5221 23.8847C34.5259 23.9423 34.538 24.0238 34.5584 24.1293C34.5568 24.1588 34.5593 24.1911 34.5661 24.2263C34.6242 24.1494 34.7768 23.9194 35.0237 23.5362L36.2246 21.6524C36.3664 21.4427 36.5006 21.2308 36.627 21.0168L37.0271 20.4253L37.4162 19.8907C37.6021 19.6069 37.8195 19.3351 38.0684 19.0756L38.079 19.0735C38.2685 18.8838 38.4265 18.7767 38.5531 18.7523C38.8062 18.7034 39.0461 18.7373 39.2729 18.854C39.4996 18.9707 39.6361 19.1486 39.6822 19.3877L39.7022 19.5479L39.5929 19.8316L39.5823 19.8336C39.4643 20.0534 39.2889 20.3352 39.0563 20.6791C38.7015 21.2217 38.3388 21.7986 37.9681 22.4099L37.1462 23.7064L37.1356 23.7084C37.1313 23.7238 37.1228 23.7364 37.1101 23.7462C37.1899 23.7818 37.2669 23.8216 37.3411 23.8657C37.7018 24.1097 38.0811 24.62 38.479 25.3965L38.8304 26.0836C39.0078 26.4359 39.1774 26.8043 39.3391 27.1888C39.3557 27.2367 39.375 27.2804 39.3972 27.3198C39.4609 27.4607 39.5217 27.6058 39.5797 27.755C39.6916 28.0325 39.8134 28.3044 39.945 28.5707L40.2023 29.1665L40.4558 29.6865C40.5818 29.9612 40.7233 30.222 40.8803 30.4689C40.8985 30.4872 40.9138 30.5098 40.9262 30.5366C40.9901 30.6409 41.0611 30.744 41.1391 30.8456L41.1703 30.8943C41.2483 30.9959 41.3189 31.0406 41.3822 31.0284C41.4314 31.0189 41.4893 30.9786 41.5558 30.9074C41.6239 30.8067 41.6968 30.7124 41.7747 30.6244L41.8172 30.5615L41.8955 30.5136C41.9817 30.4313 42.1022 30.3752 42.2569 30.3454C42.4046 30.3169 42.5301 30.3437 42.6335 30.4259C42.762 30.525 42.8446 30.6695 42.8813 30.8594C42.8908 30.9086 42.8999 31.0126 42.9087 31.1714C42.9174 31.3302 42.8388 31.5277 42.6729 31.7639C42.5919 31.9108 42.4934 32.0429 42.3774 32.1601C42.2274 32.3276 42.0869 32.4496 41.9557 32.526C41.8738 32.5928 41.7133 32.6493 41.4743 32.6955Z" fill="black"/>
<path d="M45.3739 3.6477C45.6947 3.76485 46.0345 3.59775 46.1477 3.29369L47.0703 0.811254C47.1862 0.49953 47.0272 0.153344 46.7163 0.0374269C46.4014 -0.0773156 46.0584 0.0805042 45.9425 0.391445L45.0198 2.87388C44.9039 3.1856 45.0629 3.53179 45.3739 3.6477Z" fill="black"/>
<path d="M48.3472 5.84528L50.5527 4.55648C50.8402 4.38887 50.9365 4.02075 50.7689 3.7337C50.6013 3.44665 50.2308 3.34914 49.9465 3.51792L47.7409 4.80594C47.4543 4.97355 47.3572 5.34205 47.5248 5.62871C47.6906 5.9142 48.059 6.01297 48.3472 5.84528Z" fill="black"/>
<path d="M48.6881 7.65561C48.6662 7.98731 48.9184 8.27319 49.2497 8.29433L51.3605 8.43022C51.693 8.451 51.9776 8.19916 51.9988 7.86865C52.0207 7.53695 51.7693 7.25108 51.438 7.22954L49.3264 7.09365C48.9873 7.07368 48.7092 7.32352 48.6881 7.65561Z" fill="black"/>
<path d="M9.87491 30.7001C10.3488 30.3677 10.937 30.2012 11.5056 30.231C11.8298 30.2506 12.1212 29.9937 12.1377 29.6616C12.1549 29.3295 11.8996 29.0467 11.5682 29.0295C10.7263 28.9806 9.87648 29.2288 9.18411 29.7156C8.52873 30.1751 9.23287 31.1529 9.87491 30.7001Z" fill="black"/>
</svg>
