<svg width="47" height="47" viewBox="0 0 47 47" fill="none" xmlns="http://www.w3.org/2000/svg">
<path d="M2.00854 31.9414L38.6627 37.7013L46.5172 31.9414V34.5595L38.6627 40.8431L2.00854 34.5595V31.9414Z" fill="#08A5E3"/>
<path d="M34.9973 7.85437V13.6143L35.5209 14.1379L38.1391 12.567H41.2808L45.4699 14.1379L44.4226 9.94889L40.7572 4.71259L33.4264 1.5708L34.9973 7.85437Z" fill="#08A5E3"/>
<path d="M7.19325 30.2291C5.47406 30.7306 3.6116 31.0887 1.96404 31.5185C1.74914 31.5902 1.39098 31.9483 1.39098 32.2348L1.53425 34.3838C1.53425 34.5987 1.74914 34.8136 1.96404 34.8853C2.25058 34.9569 2.60874 35.0285 2.89527 35.0285C2.10731 35.6016 1.60588 36.5328 1.60588 37.6073C1.60588 38.5386 2.03568 39.7563 2.96691 40.401C3.8265 40.9741 4.901 41.1173 5.90386 40.9741C6.97835 40.8308 7.12162 40.1861 6.76345 39.7563C7.26488 39.1833 7.55142 38.4669 7.55142 37.6073C7.55142 36.9626 7.40815 36.4612 7.12162 35.9598C16.0041 37.8939 24.9582 39.5414 33.984 40.8308V46.4182C33.984 46.7047 34.1989 46.9913 34.5571 46.9913C34.9152 46.9913 35.1301 46.7764 35.1301 46.4182V40.9741C36.3479 41.1173 37.6373 41.3322 38.855 41.4755C39.4997 41.5471 39.8579 41.2606 40.2161 40.9741V42.9798C40.2161 43.2663 40.431 43.4812 40.7891 43.4812C41.0757 43.4812 41.2906 43.2663 41.2906 42.9082L41.2189 40.0428C42.6516 38.8967 44.0842 37.7506 45.5169 36.6045C45.9467 36.2463 46.4481 35.8881 46.663 35.3151C46.7347 35.1718 46.8063 34.9569 46.8063 34.8136C46.8779 34.742 46.9496 34.6704 46.9496 34.5271C47.0928 33.5959 46.8779 32.5214 46.9496 31.6618C46.9496 31.232 46.3765 31.0171 46.3049 31.0171C40.5026 30.1575 34.4854 29.5128 28.1101 28.7248C28.7548 25.6446 30.3307 18.1948 31.4768 12.3925C32.623 12.7507 33.6975 13.467 34.4138 14.3982C34.4854 14.4699 34.4854 14.5415 34.5571 14.6131C34.7003 15.0429 35.2734 15.0429 35.4883 14.6848C35.5599 14.5415 35.6316 14.4699 35.7748 14.3266C38.4252 12.679 41.5055 12.679 44.0842 14.0401C44.3708 14.255 44.6573 14.5415 44.8006 14.7564C45.0871 15.2578 45.8034 15.0429 45.8034 14.4699C45.8034 10.0286 43.2247 5.65901 39.2848 3.36675C37.1358 2.14899 34.9152 1.36103 32.6946 1.14613L32.7662 0.573064C32.7662 0.286532 32.5513 0 32.2648 0C31.9783 0 31.6917 0.214899 31.6917 0.501431L31.6201 1.28939C29.8293 1.21776 28.0385 1.57593 26.4625 2.29226C22.666 3.93982 19.2992 8.02289 17.8666 12.6074C17.7949 12.8939 17.9382 13.2521 18.368 13.3237C18.368 13.3237 22.1646 11.0315 24.7433 13.5386C24.9582 13.6819 25.1015 13.8968 25.3164 13.9684C25.6029 14.1833 25.8895 14.1833 26.1044 13.8968C26.7491 12.9656 28.6115 12.1776 30.4023 12.3925C29.3279 18.1948 27.6803 25.7162 27.0356 28.7965V28.8681C25.1731 28.6532 23.3107 28.3667 21.5199 28.1518C18.5113 23.8538 15.3594 19.6991 12.4941 15.4727C12.3508 15.3295 12.2076 15.1862 11.9927 15.2578C8.91244 15.616 5.83223 16.3323 2.68037 16.7621C2.32221 16.8338 2.10731 17.1919 2.25058 17.5501C2.32221 17.6934 2.39384 17.8366 2.46547 17.9082C2.10731 18.1231 1.74914 18.4097 1.39098 18.6246C1.31935 18.6246 1.24771 18.6246 1.24771 18.6962C0.961182 18.8395 0.889549 19.1976 1.03281 19.4125C3.32507 23.6389 5.33079 27.1489 7.19325 30.2291ZM31.2619 2.43552C31.835 2.36389 32.4081 2.43552 32.9811 2.50715C32.9095 2.93695 34.4138 6.59024 34.6287 12.8939C32.4081 10.1719 28.6115 10.1003 26.176 12.2492C27.1072 8.59596 28.8264 5.22921 31.2619 2.43552ZM44.5857 13.2521C42.58 11.8194 38.4969 10.6017 35.7032 13.0372C35.5599 9.52719 35.0585 6.0888 34.1273 2.72205C35.7032 3.08022 37.2791 3.65328 38.7834 4.51288C41.9353 6.37534 44.1559 9.67045 44.5857 13.2521ZM26.8923 3.22348C27.8236 2.79369 28.8264 2.57879 29.8293 2.43552C27.6087 5.30084 25.9611 8.52433 25.1015 12.0343C23.3823 10.6017 21.1617 10.4584 19.5141 11.2464C21.0184 7.66473 23.8121 4.58451 26.8923 3.22348ZM8.69755 32.6646C7.19325 32.4497 5.83223 32.2349 4.54283 32.02C5.61733 31.7334 6.76345 31.5185 7.76632 31.1604C8.05285 31.6618 8.41101 32.1632 8.69755 32.6646ZM19.3709 34.1689C19.2992 34.1689 19.2992 34.1689 19.3709 34.1689C17.3651 33.8824 15.3594 33.5959 13.4253 33.3093C14.4998 32.8795 15.5027 32.3781 16.4339 31.8767C19.5858 30.444 22.8809 29.7993 26.1044 29.7277C26.3909 29.7277 26.6774 29.7993 26.8923 29.7993C24.3852 31.3036 21.878 32.8079 19.3709 34.1689ZM38.1387 38.1088L38.3536 40.1145C26.6058 38.4669 14.07 36.0314 2.53711 33.8824L2.46547 32.7363C11.2047 34.2406 29.7576 36.6761 38.1387 38.1088ZM44.9438 32.02C42.7232 33.4526 40.3593 35.1718 38.2103 36.9626C36.2046 36.6045 33.6975 36.2463 30.9038 35.8165L38.1387 31.0887C40.431 31.4469 42.7232 31.7334 44.9438 32.02ZM45.9467 34.3122C45.2304 34.9569 39.4281 39.8279 39.3565 39.8996C39.1416 37.8222 39.2132 37.8939 39.1416 37.679C41.2906 35.8165 43.7261 34.0973 45.9467 32.7363C45.9467 33.2377 46.0183 33.8108 45.9467 34.3122ZM4.61446 35.53C5.68896 35.53 6.54856 36.4612 6.54856 37.6073C6.54856 38.8251 5.61733 39.6847 4.61446 39.6847C3.53997 39.6847 2.68037 38.7535 2.68037 37.6073C2.68037 36.4612 3.53997 35.53 4.61446 35.53ZM36.4911 30.9455L29.686 35.3867C29.6144 35.4583 29.5427 35.53 29.4711 35.6016C26.8207 35.1718 23.9554 34.8136 21.0901 34.3838C23.5972 33.0228 26.176 31.5185 28.6115 29.9426C31.5485 30.3724 33.8407 30.6589 36.4911 30.9455ZM11.921 16.2607C14.7147 20.3438 17.7233 24.3552 20.5886 28.3667C18.0815 29.7277 15.5027 31.3036 12.5657 32.5214C9.12734 27.8652 6.11876 22.8509 3.6116 17.6933C6.40529 17.2636 9.05571 16.6905 11.921 16.2607ZM11.6345 33.0944C11.1331 33.0228 10.6316 32.9512 10.1302 32.8795V32.8079C7.69468 29.083 5.25916 24.8566 2.32221 19.4125C2.60874 19.1976 2.75201 19.126 3.03854 18.9111C5.47406 23.8538 8.33938 28.5816 11.6345 33.0944Z" fill="black"/>
<path d="M4.61461 38.1809C4.85198 38.1809 5.04441 37.9885 5.04441 37.7511C5.04441 37.5137 4.85198 37.3213 4.61461 37.3213C4.37724 37.3213 4.18481 37.5137 4.18481 37.7511C4.18481 37.9885 4.37724 38.1809 4.61461 38.1809Z" fill="black"/>
</svg>
