<svg width="78" height="78" viewBox="0 0 78 78" fill="none" xmlns="http://www.w3.org/2000/svg">
<circle cx="39" cy="39" r="39" fill="#08A5E3"/>
<path d="M36.6259 32.7059H49.9296M36.6259 32.7059C36.5813 33.2837 36.5556 33.9106 36.5556 34.5588V36.4118M36.6259 32.7059C36.7515 31.0814 37.027 29.8454 37.3025 29.6176C37.6759 29.3088 40.2901 29 43.2778 29C46.2654 29 48.8796 29.3088 49.2531 29.6176C49.5286 29.8454 49.804 31.0814 49.9296 32.7059M49.9296 32.7059C49.9743 33.2837 50 33.9106 50 34.5588C50 36.345 49.8048 37.9697 49.5555 38.8496C49.4263 39.3058 49.0044 39.5255 48.5401 39.5959C47.4534 39.7607 46.4952 39.9773 44.9361 40.0711L44.9415 40.1176M36.5556 36.4118C32.7531 36.4118 29.4259 36.7892 28.9506 37.1667C28.6503 37.4051 28.3501 38.5474 28.1696 40.1176M36.5556 36.4118C40.358 36.4118 43.6852 36.7892 44.1605 37.1667C44.4608 37.4051 44.761 38.5474 44.9415 40.1176M44.9415 40.1176C45.0466 41.033 45.1111 42.0939 45.1111 43.2059C45.1111 46.2255 44.6358 48.8676 44.1605 49.2451C43.6852 49.6225 40.358 50 36.5556 50C32.7531 50 29.4259 49.6225 28.9506 49.2451C28.4753 48.8676 28 46.2255 28 43.2059C28 42.0939 28.0645 41.033 28.1696 40.1176M44.9415 40.1176H28.1696" stroke="white" stroke-width="1.5" stroke-linecap="round" stroke-linejoin="round"/>
</svg>
