<svg width="78" height="78" viewBox="0 0 78 78" fill="none" xmlns="http://www.w3.org/2000/svg">
<circle cx="39" cy="39" r="39" fill="#08A5E3"/>
<path d="M46.6751 47.9783H45.7288C44.7328 47.9783 43.7866 48.3643 43.0894 49.0615L40.9605 51.1655C39.9894 52.1242 38.4082 52.1242 37.4371 51.1655L35.3082 49.0615C34.611 48.3643 33.6523 47.9783 32.6688 47.9783H31.735C29.6683 47.9783 28 46.3225 28 44.2806V30.6977C28 28.6559 29.6683 27 31.735 27H46.6751C48.7418 27 50.4101 28.6559 50.4101 30.6977V44.2806C50.4101 46.31 48.7418 47.9783 46.6751 47.9783Z" stroke="white" stroke-width="1.5" stroke-miterlimit="10" stroke-linecap="round" stroke-linejoin="round"/>
<path d="M32.98 35.9019C32.98 34.744 33.9262 33.7978 35.084 33.7978C36.2419 33.7978 37.1881 34.744 37.1881 35.9019C37.1881 38.2425 33.8639 38.4915 33.1294 40.72C32.98 41.1807 33.3659 41.6413 33.8515 41.6413H37.1881M44.2348 41.6289V34.5199C44.2355 34.3626 44.1848 34.2094 44.0904 34.0835C43.996 33.9577 43.8631 33.8661 43.7119 33.8227C43.5597 33.7797 43.3977 33.7868 43.2497 33.8428C43.1018 33.8988 42.9758 34.0009 42.8902 34.134C41.9938 35.5782 41.0227 37.2216 40.1761 38.6658C40.0391 38.9023 40.0391 39.2136 40.1761 39.4501C40.3131 39.6867 40.5745 39.8361 40.8609 39.8361H45.43" stroke="white" stroke-width="1.5" stroke-linecap="round" stroke-linejoin="round"/>
</svg>
