<svg width="51" height="28" viewBox="0 0 51 28" fill="none" xmlns="http://www.w3.org/2000/svg">
<rect width="28" height="28" rx="14" fill="url(#paint0_linear_14056_64189)"/>
<path d="M9.24915 14.8016C9.93574 13.2168 10.5042 11.616 11.1217 10.0345C11.4915 9.086 12.3995 8.73543 13.2671 9.21135C13.6799 9.43823 13.8503 9.82641 13.9524 10.2605C14.3558 11.974 14.7635 13.6871 15.1754 15.4C15.1902 15.4618 15.2222 15.5203 15.2838 15.6745C15.6448 14.7594 15.9767 13.917 16.3491 12.9719C16.932 14.123 17.6489 15.0778 17.9425 16.2452C18.1179 16.9422 17.8581 17.5548 17.6202 18.1773C17.2782 19.0786 16.9408 19.982 16.5895 20.8795C16.2644 21.7093 15.7174 22.0611 14.8975 21.9914C14.1835 21.9304 13.6791 21.4202 13.4897 20.6125C13.103 18.9616 12.7019 17.3137 12.3046 15.6653C12.2806 15.5658 12.2393 15.4702 12.1752 15.2825C11.9044 15.9753 11.664 16.59 11.4241 17.2046C11.171 17.8489 10.9365 18.4999 10.6649 19.1363C10.4056 19.7426 9.91044 20.071 9.2521 20.1086C8.59377 20.1462 8.07124 19.8721 7.72794 19.3068C7.63061 19.1372 7.55952 18.9541 7.51707 18.7636C7.17631 17.3575 6.84651 15.949 6.50996 14.5434C6.38006 14.0002 6.23161 13.457 6.11142 12.9138C6.01062 12.4542 5.90477 11.9791 6.15148 11.5408C6.41802 11.0678 6.91652 10.8551 7.4711 10.9629C7.98436 11.0624 8.29982 11.3966 8.42634 11.8926C8.63721 12.7141 8.83501 13.5385 9.03617 14.3625C9.06949 14.5083 9.10745 14.655 9.24915 14.8016Z" fill="white"/>
<path d="M18.3163 16C17.8346 14.838 17.2043 13.8214 16.9241 12.5953C16.8581 12.3065 16.848 12.0056 16.9305 11.7207C17.1139 11.0889 17.3097 10.4623 17.5045 9.8361C17.5404 9.72291 17.6121 9.60154 17.5268 9.50556C17.4579 9.42724 17.3513 9.49782 17.2756 9.53956C16.8832 9.75475 16.5381 9.61746 16.2547 9.29425C15.9792 8.98007 15.9516 8.5626 16.0567 8.13222C16.1431 7.77802 16.3706 7.58693 16.6332 7.45653C17.53 7.01022 18.4354 6.58199 19.3326 6.13354C19.9959 5.80214 20.5965 6.09695 20.834 6.91339C21.1504 7.99966 21.5557 9.0485 21.9195 10.115C22.1096 10.6745 21.9532 11.277 21.5536 11.5572C21.1421 11.8438 20.6664 11.7061 20.3195 11.2374C20.2302 11.1165 20.2144 10.8501 20.0444 10.8931C19.9134 10.9262 19.9479 11.1604 19.9009 11.302C19.4234 12.7898 18.9355 14.2716 18.448 15.7555C18.4272 15.8248 18.3809 15.8838 18.3163 16Z" fill="white"/>
<path d="M31.386 18C31.2833 18 31.1993 17.9673 31.134 17.902C31.0687 17.8367 31.036 17.7527 31.036 17.65V8.55C31.036 8.44733 31.0687 8.36333 31.134 8.298C31.1993 8.23267 31.2833 8.2 31.386 8.2H35.544C36.3187 8.2 36.9533 8.312 37.448 8.536C37.9427 8.76 38.3067 9.07733 38.54 9.488C38.7827 9.89867 38.904 10.3793 38.904 10.93C38.904 11.2753 38.8387 11.5787 38.708 11.84C38.5867 12.1013 38.4327 12.316 38.246 12.484C38.0687 12.652 37.896 12.778 37.728 12.862C38.092 13.03 38.4093 13.31 38.68 13.702C38.96 14.0847 39.1 14.542 39.1 15.074C39.1 15.662 38.9693 16.1753 38.708 16.614C38.4467 17.0527 38.0593 17.3933 37.546 17.636C37.0327 17.8787 36.4073 18 35.67 18H31.386ZM33.262 16.362H35.404C35.8613 16.362 36.2067 16.236 36.44 15.984C36.6733 15.7227 36.79 15.4147 36.79 15.06C36.79 14.696 36.6687 14.3927 36.426 14.15C36.1927 13.898 35.852 13.772 35.404 13.772H33.262V16.362ZM33.262 12.162H35.278C35.7167 12.162 36.0433 12.0547 36.258 11.84C36.482 11.616 36.594 11.3313 36.594 10.986C36.594 10.6407 36.482 10.3653 36.258 10.16C36.0433 9.94533 35.7167 9.838 35.278 9.838H33.262V12.162ZM40.7424 18C40.649 18 40.5697 17.9673 40.5044 17.902C40.439 17.8367 40.4064 17.7527 40.4064 17.65V11.07C40.4064 10.9673 40.439 10.8833 40.5044 10.818C40.5697 10.7527 40.649 10.72 40.7424 10.72H42.1424C42.245 10.72 42.329 10.7527 42.3944 10.818C42.4597 10.8833 42.4924 10.9673 42.4924 11.07V17.65C42.4924 17.7527 42.4597 17.8367 42.3944 17.902C42.329 17.9673 42.245 18 42.1424 18H40.7424ZM40.7004 9.6C40.607 9.6 40.5277 9.56733 40.4624 9.502C40.397 9.43667 40.3644 9.35267 40.3644 9.25V8.13C40.3644 8.02733 40.397 7.94333 40.4624 7.878C40.5277 7.80333 40.607 7.766 40.7004 7.766H42.1704C42.273 7.766 42.357 7.80333 42.4224 7.878C42.497 7.94333 42.5344 8.02733 42.5344 8.13V9.25C42.5344 9.35267 42.497 9.43667 42.4224 9.502C42.357 9.56733 42.273 9.6 42.1704 9.6H40.7004ZM44.0382 18C43.9448 18 43.8655 17.9673 43.8002 17.902C43.7348 17.8367 43.7022 17.7527 43.7022 17.65V16.712C43.7022 16.6187 43.7208 16.5347 43.7582 16.46C43.8048 16.3853 43.8562 16.3153 43.9122 16.25L47.3422 12.344H44.1642C44.0615 12.344 43.9775 12.3113 43.9122 12.246C43.8468 12.1807 43.8142 12.1013 43.8142 12.008V11.07C43.8142 10.9673 43.8468 10.8833 43.9122 10.818C43.9775 10.7527 44.0615 10.72 44.1642 10.72H49.6242C49.7268 10.72 49.8108 10.7527 49.8762 10.818C49.9415 10.8833 49.9742 10.9673 49.9742 11.07V12.078C49.9742 12.162 49.9555 12.2367 49.9182 12.302C49.8808 12.3673 49.8342 12.4327 49.7782 12.498L46.4182 16.376H49.9182C50.0115 16.376 50.0908 16.4087 50.1562 16.474C50.2215 16.5393 50.2542 16.6187 50.2542 16.712V17.65C50.2542 17.7527 50.2215 17.8367 50.1562 17.902C50.0908 17.9673 50.0115 18 49.9182 18H44.0382Z" fill="white"/>
<defs>
<linearGradient id="paint0_linear_14056_64189" x1="14" y1="0" x2="14" y2="28" gradientUnits="userSpaceOnUse">
<stop stop-color="#F18326"/>
<stop offset="1" stop-color="#FF4D00"/>
</linearGradient>
</defs>
</svg>
